# xmcd
#
# Track frame offsets:
#	182
#	21210
#	55350
#
# Disc length: 1003 seconds
#
# Revision: 1
# Processed by: cddbd v1.5.1PL0 Copyright (c) Steve Scherf et al.
# Submitted via: audiograbber 1.83.01
#
DISCID=2003e903
DTITLE=CYB - "Now" Original and Remixes
DYEAR=1996
DGENRE=House
TTITLE0="Now" (Play Mix)
TTITLE1="Now" (Two Doo Mix)
TTITLE2="Now" (Harmomix)
EXTD=
EXTT0=
EXTT1=
EXTT2=
PLAYORDER=
